<svg xmlns="http://www.w3.org/2000/svg" viewBox="26 19 550 550" role="img">
  <defs><filter id="rough" x="-5%" y="-5%" width="110%" height="110%"><feTurbulence type="fractalNoise" baseFrequency="0.035" numOctaves="2" seed="660"/><feDisplacementMap in="SourceGraphic" scale="5"/></filter></defs>
  <g filter="url(#rough)">
  <path d="M493.4 138.9 C494.5 148.3 495.6 159.7 491.5 167.9 C487.4 176.1 476.8 181.4 469 188 C461.2 194.7 453.5 205.3 444.7 207.7 C435.9 210 425.3 204.9 416.2 202 C407.2 199.1 398.5 196.3 390.5 190.5 C382.6 184.7 372.1 175.5 368.3 167.3 C364.6 159 367.1 150.4 367.9 141.1 C368.8 131.9 369.5 120 373.3 112 C377.1 103.9 383.6 97.9 390.8 92.9 C398.1 87.9 407.9 84.4 416.7 82.1 C425.5 79.8 434.8 77.3 443.6 78.9 C452.5 80.4 462.7 85.9 469.7 91.4 C476.6 97 481.2 104.1 485.2 112 C489.1 119.9 492.3 129.6 493.4 138.9 Z" fill="#f9b03f"/>
  <path d="M79.3 169.3 C102.7 168.1 182.1 160.1 219.6 162.1 C257 164.2 289.8 178.2 303.8 181.4" fill="none" stroke="#bde3ea" stroke-width="30" stroke-linecap="round" stroke-linejoin="round"/>
  <path d="M59.4 381.7 C90.7 375 187.4 345.8 247.1 341.5 C306.7 337.3 365.2 356.5 417.2 356 C469.2 355.5 535.5 341.4 559.2 338.4" fill="none" stroke="#efd9a7" stroke-width="48" stroke-linecap="round" stroke-linejoin="round"/>
  <path d="M63.6 477.2 C95.8 472.4 176.8 451 256.7 448.2 C336.7 445.3 495.6 458.1 543.4 460.1" fill="none" stroke="#efd9a7" stroke-width="52" stroke-linecap="round" stroke-linejoin="round"/>
  <path d="M396.3 118 C403.7 115.4 433.3 105.1 440.7 102.5" fill="none" stroke="#ffffff" stroke-width="4" stroke-linecap="round" stroke-linejoin="round"/>
  <path d="M397.9 139.4 C405 136.6 433.7 125.1 440.8 122.3" fill="none" stroke="#ffffff" stroke-width="4" stroke-linecap="round" stroke-linejoin="round"/>
  <path d="M397.8 159.2 C405.2 156.5 434.7 145.5 442 142.7" fill="none" stroke="#ffffff" stroke-width="4" stroke-linecap="round" stroke-linejoin="round"/>
  <path d="M399.5 180.2 C407 177.5 437.2 166.9 444.8 164.3" fill="none" stroke="#ffffff" stroke-width="4" stroke-linecap="round" stroke-linejoin="round"/>
  <path d="M382.7 163.2 C387.5 169.6 406.8 195.3 411.6 201.7" fill="none" stroke="#f9b03f" stroke-width="6" stroke-linecap="round" stroke-linejoin="round"/>
  <path d="M171.3 470.8 C170.9 442.6 169.4 329.4 169 301.1" fill="none" stroke="#8ab05c" stroke-width="26" stroke-linecap="round" stroke-linejoin="round"/>
  <path d="M171.1 392.8 C165.4 391.4 142.9 394.2 136.5 384.4 C130.1 374.6 133.2 342.3 132.6 333.9" fill="none" stroke="#8ab05c" stroke-width="18" stroke-linecap="round" stroke-linejoin="round"/>
  <path d="M168.9 368.9 C174.5 368.1 196.8 374.1 202.6 363.8 C208.4 353.5 203.5 316.6 203.7 307.2" fill="none" stroke="#8ab05c" stroke-width="18" stroke-linecap="round" stroke-linejoin="round"/>
  <path d="M451.4 421.4 C451.2 405.2 450.6 340.5 450.4 324.3" fill="none" stroke="#8ab05c" stroke-width="26" stroke-linecap="round" stroke-linejoin="round"/>
  <path d="M450.7 377.1 C444.8 376.2 421.2 376.9 415.3 371.3 C409.4 365.8 415.2 348.4 415.2 343.8" fill="none" stroke="#8ab05c" stroke-width="18" stroke-linecap="round" stroke-linejoin="round"/>
  <path d="M448.9 362.2 C454.3 361.8 474.9 365.2 480.9 359.8 C486.9 354.3 484.1 334.7 484.7 329.7" fill="none" stroke="#8ab05c" stroke-width="18" stroke-linecap="round" stroke-linejoin="round"/>
  <path d="M40.2 359.2 C60.1 352.5 119.8 323.4 159.5 318.9 C199.1 314.4 237.6 335.2 278 332.4 C318.4 329.5 355.1 304.6 401.8 301.8 C448.5 299 532.2 313.4 558.2 315.7" fill="none" stroke="#141413" stroke-width="7" stroke-linecap="round" stroke-linejoin="round"/>
  <path d="M47.8 431.1 C72.8 426 151.1 402 197.8 400.5 C244.6 399.1 267.6 423.4 328.3 422.4 C389 421.4 523.1 399.3 562.1 394.6" fill="none" stroke="#141413" stroke-width="7" stroke-linecap="round" stroke-linejoin="round"/>
  <path d="M156.7 470.2 C156.9 443 155.4 337.3 157.7 306.9 C159.9 276.6 165.9 288 170.2 287.9 C174.6 287.8 181.5 275.9 183.8 306.2 C186 336.5 183.6 442.5 183.6 469.7" fill="none" stroke="#141413" stroke-width="5" stroke-linecap="round" stroke-linejoin="round"/>
  <path d="M157.8 401.4 C152.1 398.6 129.6 397.1 123.8 384.5 C118 371.8 122.9 335.5 122.8 325.7" fill="none" stroke="#141413" stroke-width="5" stroke-linecap="round" stroke-linejoin="round"/>
  <path d="M183.9 375.6 C188.9 373.7 208.9 376.6 214.2 364 C219.5 351.5 215.4 311.1 215.6 300.5" fill="none" stroke="#141413" stroke-width="5" stroke-linecap="round" stroke-linejoin="round"/>
  <path d="M436.6 419.7 C436.6 404.9 434.3 348.9 436.5 331 C438.8 313.1 445.8 312 450.1 312.1 C454.5 312.3 460.6 313.8 462.8 331.8 C465 349.7 463.3 405.3 463.4 420" fill="none" stroke="#141413" stroke-width="5" stroke-linecap="round" stroke-linejoin="round"/>
  <path d="M436.8 381.6 C431.2 380.1 409.1 379.3 403.3 372.1 C397.5 364.9 402.4 344 402.2 338.3" fill="none" stroke="#141413" stroke-width="5" stroke-linecap="round" stroke-linejoin="round"/>
  <path d="M462.2 368.7 C467.7 367.3 489.5 367.6 494.9 360.2 C500.3 352.8 494.7 330.2 494.7 324.2" fill="none" stroke="#141413" stroke-width="5" stroke-linecap="round" stroke-linejoin="round"/>
  <path d="M299.2 470.5 C301.5 469.1 307.8 461.8 312.7 461.7 C317.6 461.6 325.8 468.7 328.4 470.1" fill="none" stroke="#141413" stroke-width="5" stroke-linecap="round" stroke-linejoin="round"/>
  <path d="M358.2 499.1 C360.8 497.7 368.3 490.5 373.6 490.9 C378.9 491.3 387.2 499.6 390 501.4" fill="none" stroke="#141413" stroke-width="5" stroke-linecap="round" stroke-linejoin="round"/>
  <path d="M99.7 506.7 C101.8 505.3 107 498 112.3 498.1 C117.7 498.1 128.4 505.7 131.6 507.3" fill="none" stroke="#141413" stroke-width="5" stroke-linecap="round" stroke-linejoin="round"/>
  <path d="M517 504.4 C516.1 501.8 513.9 493.7 511.9 488.9 C510 484 506.4 477.6 505.3 475.3" fill="none" stroke="#141413" stroke-width="5" stroke-linecap="round" stroke-linejoin="round"/>
  <path d="M517.1 503.5 C516.9 500.4 516.2 491 515.4 484.5 C514.7 478 513 468 512.6 464.7" fill="none" stroke="#141413" stroke-width="5" stroke-linecap="round" stroke-linejoin="round"/>
  <path d="M520.8 506.1 C520.6 501.7 519.7 487.4 519.7 479.3 C519.8 471.2 521 461.2 521.2 457.6" fill="none" stroke="#141413" stroke-width="5" stroke-linecap="round" stroke-linejoin="round"/>
  <path d="M520.6 504.3 C521.3 501.1 523.9 490.8 525 484.7 C526.1 478.6 527 470.5 527.4 467.7" fill="none" stroke="#141413" stroke-width="5" stroke-linecap="round" stroke-linejoin="round"/>
  <path d="M524.9 506.4 C525.8 503.6 528.5 493.9 530.6 489.4 C532.6 485 535.9 481.4 537 479.8" fill="none" stroke="#141413" stroke-width="5" stroke-linecap="round" stroke-linejoin="round"/>
  <path d="M495.2 508.8 C503.1 508.1 535 505.3 543 504.6" fill="none" stroke="#141413" stroke-width="6" stroke-linecap="round" stroke-linejoin="round"/>
  <path d="M244.3 132.8 C245.8 131.5 250.7 125.5 253.1 125.2 C255.6 124.9 256.5 131.3 259.1 131.1 C261.7 131 265.7 123.9 268.7 124.3 C271.6 124.7 275.3 131.9 276.7 133.5" fill="none" stroke="#141413" stroke-width="4.5" stroke-linecap="round" stroke-linejoin="round"/>
  </g>
</svg>
